<svg id="Layer_1" data-name="Layer 1" xmlns="http://www.w3.org/2000/svg" viewBox="0 0 39.34 41.11"><defs><style>.cls-1,.cls-2{fill:#fff;}.cls-2{opacity:0.65;}</style></defs><title>AddFriend</title><g id="_Group_" data-name="&lt;Group&gt;"><path id="_Path_" data-name="&lt;Path&gt;" class="cls-1" d="M39.72,35.88A12.5,12.5,0,1,1,32,12.22c-0.1-6-3.84-8.33-8.46-8.33s-8.46,2.4-8.46,8.57a24.43,24.43,0,0,0,3.52,12v4.35C15.57,30.41,5,37,5,37.59v6.2A1.21,1.21,0,0,0,6.21,45H40.69a1.21,1.21,0,0,0,1.21-1.21v-6.2A9,9,0,0,0,39.72,35.88Z" transform="translate(-5 -3.89)"/><path id="_Compound_Path_" data-name="&lt;Compound Path&gt;" class="cls-2" d="M25.48,24.45A9.43,9.43,0,1,0,34.91,15,9.43,9.43,0,0,0,25.48,24.45Zm3.11-2h4.49V18.13H36.5v4.35H41v3.43H36.5v4.35H33.08V25.91H28.59V22.49Z" transform="translate(-5 -3.89)"/></g></svg>