<svg id="Layer_1" data-name="Layer 1" xmlns="http://www.w3.org/2000/svg" viewBox="0 0 164.69 165.69"><defs><style>.cls-1{fill:#fff;}</style></defs><title>FindLocation</title><path id="_Compound_Path_" data-name="&lt;Compound Path&gt;" class="cls-1" d="M102.47,33.73a65.94,65.94,0,1,0,65.94,65.94A65.94,65.94,0,0,0,102.47,33.73Zm0,112.5A46.55,46.55,0,1,1,149,99.68,46.55,46.55,0,0,1,102.47,146.23Z" transform="translate(-19.49 -17.7)"/><rect id="_Rectangle_" data-name="&lt;Rectangle&gt;" class="cls-1" x="75.77" y="113" width="14.44" height="52.69" rx="7.22" ry="7.22"/><rect id="_Rectangle_2" data-name="&lt;Rectangle&gt;" class="cls-1" x="75.77" width="14.44" height="52.69" rx="7.22" ry="7.22"/><rect id="_Rectangle_3" data-name="&lt;Rectangle&gt;" class="cls-1" x="150.61" y="73.33" width="14.44" height="52.69" rx="7.22" ry="7.22" transform="translate(238.02 -75.86) rotate(90)"/><rect id="_Rectangle_4" data-name="&lt;Rectangle&gt;" class="cls-1" x="38.61" y="73.33" width="14.44" height="52.69" rx="7.22" ry="7.22" transform="translate(126.02 36.14) rotate(90)"/></svg>