<svg id="Layer_1" data-name="Layer 1" xmlns="http://www.w3.org/2000/svg" viewBox="0 0 825.33 751.53"><defs><style>.cls-1{fill:#fff;}</style></defs><title>Logo</title><path id="_Compound_Path_" data-name="&lt;Compound Path&gt;" class="cls-1" d="M693,502.24L446.79,358l-64.23,33.66-26.22-11.34V364.77l47.89-62.13H526.05l115.48,70.83H918.4A233.85,233.85,0,0,0,850,214.06l-6.64-6.64c-91.29-91.29-240.67-91.29-332,0l-5.85,5.85-5.85-5.85c-91.29-91.29-240.67-91.29-332,0l-6.64,6.64A233.67,233.67,0,0,0,93.06,366.27H340.65v24.36L383.2,409l63.16-33.1,233.84,137-37.81,31.3L525.67,475.84a7.84,7.84,0,1,0-7.93,13.54l111.8,65.49-28.72,23.78-54.23-31.77a7.84,7.84,0,0,0-7.93,13.54L588,589.29l-18.68,15.47-75.64-13.89-15.16-86.6-60-35.41H337.63l-31.18,40.35H131.11a233.5,233.5,0,0,0,30,36.81l5.85,5.85L505.57,890.48,844.18,551.87,850,546a233.15,233.15,0,0,0,34.4-43.79H693ZM320.2,517.07l25.13-32.52h52.78l-42,54.37Zm49.38,30.05,47.19-61.05,44.37,26.18-47.62,61.62Zm59.75,31.93,37.76-48.86,10.09,57.64Z" transform="translate(-93.06 -138.95)"/></svg>