<svg id="Layer_1" data-name="Layer 1" xmlns="http://www.w3.org/2000/svg" viewBox="0 0 650.12 302.12"><defs><style>.cls-1{fill:#fff;}</style></defs><title>Logo</title><g id="_Group_" data-name="&lt;Group&gt;"><polygon id="_Path_" data-name="&lt;Path&gt;" class="cls-1" points="178.71 181.92 153.58 214.44 189.47 236.28 231.49 181.92 178.71 181.92"/><polygon id="_Path_2" data-name="&lt;Path&gt;" class="cls-1" points="250.14 183.44 202.96 244.49 246.89 271.23 294.51 209.61 250.14 183.44"/><polygon id="_Path_3" data-name="&lt;Path&gt;" class="cls-1" points="474.91 70.83 359.43 0 237.61 0 189.72 62.13 189.72 77.69 215.93 89.03 280.16 55.38 526.4 199.6 650.12 199.6 650.12 71.1 474.91 70.83"/><polygon id="_Path_4" data-name="&lt;Path&gt;" class="cls-1" points="262.7 276.43 310.55 285.21 300.46 227.57 262.7 276.43"/><path id="_Path_5" data-name="&lt;Path&gt;" class="cls-1" d="M167.21,507.61l145.14,0,25.86-33.47H419l60,35.41,15.16,86.6,75.64,13.89,18.68-15.47-49.3-28.88a7.84,7.84,0,0,1,7.93-13.54L601.41,584l28.72-23.78L518.33,494.7a7.84,7.84,0,1,1,7.93-13.54L643,549.54l37.81-31.3L447,381.27l-63.16,33.1L341.24,396v-16.9h-174" transform="translate(-167.21 -307.96)"/></g></svg>