<svg id="Layer_1" data-name="Layer 1" xmlns="http://www.w3.org/2000/svg" viewBox="0 0 119.24 84.85"><defs><style>.cls-1{fill:#405268;}</style></defs><title>Mail</title><g id="_Group_" data-name="&lt;Group&gt;"><path id="_Path_" data-name="&lt;Path&gt;" class="cls-1" d="M104,124.24a5.19,5.19,0,0,0,3.7-1.52l51.23-51.23a8.28,8.28,0,0,0-3.67-.87H52.76a8.28,8.28,0,0,0-3.67.87l51.23,51.23A5.19,5.19,0,0,0,104,124.24Z" transform="translate(-44.39 -70.62)"/><path id="_Path_2" data-name="&lt;Path&gt;" class="cls-1" d="M112.15,127.15a11.53,11.53,0,0,1-16.27,0l-51-51a8.27,8.27,0,0,0-.5,2.82V147.1a8.39,8.39,0,0,0,8.37,8.37H155.27a8.39,8.39,0,0,0,8.37-8.37V79a8.27,8.27,0,0,0-.5-2.82Z" transform="translate(-44.39 -70.62)"/></g></svg>