<svg id="Layer_1" data-name="Layer 1" xmlns="http://www.w3.org/2000/svg" viewBox="0 0 109.07 138.66"><defs><style>.cls-1,.cls-2{fill:#fff;}.cls-2{opacity:0.7;}</style></defs><title>Nearby</title><path id="_Compound_Path_" data-name="&lt;Compound Path&gt;" class="cls-1" d="M99.24,36.53A35.67,35.67,0,0,0,63.62,72.25C63.62,92,91.06,145,100.87,145s34-53.07,34-72.79A35.67,35.67,0,0,0,99.24,36.53Zm0,52A16.79,16.79,0,1,1,116,71.74,16.79,16.79,0,0,1,99.24,88.53Z" transform="translate(-44.96 -36.53)"/><path id="_Path_" data-name="&lt;Path&gt;" class="cls-2" d="M117.92,128.75l-1.59,2.31c16.92,1.89,28,7.41,28,14.57,0,9.33-19,17.79-44.84,17.79H99.46c-25.88,0-44.84-8.46-44.84-17.79,0-7.16,11.93-12.87,28.85-14.76l-1.88-2.12C58.81,131,45,138.29,45,149.53c0,15.18,24.41,25.66,54.53,25.66S154,164.71,154,149.53C154,138.28,140.71,131,117.92,128.75Z" transform="translate(-44.96 -36.53)"/><path id="_Path_2" data-name="&lt;Path&gt;" class="cls-2" d="M116,131.6l-1.19,1.55c10.71,1.2,12.67,3.92,12.67,8.46,0,5.9-12,11.26-28.38,11.26h0c-16.38,0-28.38-5.36-28.38-11.26,0-4.53,3.68-7.3,14.39-8.49l-1.39-1.57C69.29,133,64.6,137,64.6,144.08c0,9.6,15.45,16.24,34.51,16.24s34.51-6.64,34.51-16.24C133.62,137,130.45,133,116,131.6Z" transform="translate(-44.96 -36.53)"/></svg>