<svg id="Layer_1" data-name="Layer 1" xmlns="http://www.w3.org/2000/svg" viewBox="0 0 174.52 174.37"><defs><style>.cls-1{fill:#fff;}</style></defs><title>rcHeader_Settings</title><path id="_Compound_Path_" data-name="&lt;Compound Path&gt;" class="cls-1" d="M187.33,79.62A89,89,0,0,0,176.6,53.17a22.27,22.27,0,0,1-21.68-.58C146,47,141.95,34.09,147,25.93a13.14,13.14,0,0,1,1.3-1.72,88.85,88.85,0,0,0-27.81-11.76c-1.48,8.67-10.91,16.12-20.58,16.12s-19-7.39-20.56-16A88.85,88.85,0,0,0,51.95,24.24a13.15,13.15,0,0,1,1.27,1.69C58.3,34.09,54.27,47,45.33,52.59a22.28,22.28,0,0,1-21.61.61A89,89,0,0,0,12.81,80.58c8.27,1.89,15.28,10.9,15.38,20.21s-6.61,18.36-14.76,20.52a89,89,0,0,0,11.15,26.07c6.89-3.58,16.82-2.6,23.26,2.81,7.39,6.22,9.8,18,5.37,25.55a88.81,88.81,0,0,0,27,11.08C82.74,179.21,91.25,173,100,172.94s17.63,6.15,20.19,13.87a88.82,88.82,0,0,0,27.4-11.37c-4.38-7.73-1.57-19.61,6.14-25.63a22.23,22.23,0,0,1,22.12-2.61,89,89,0,0,0,11.27-26.83c-8.25-2-15.09-11.24-15-20.57S179.15,81.62,187.33,79.62ZM99.95,141.33A41.33,41.33,0,1,1,141.27,100,41.33,41.33,0,0,1,99.95,141.33Z" transform="translate(-12.81 -12.45)"/></svg>