<?xml version="1.0" encoding="utf-8"?>
<!-- Generator: Adobe Illustrator 19.2.1, SVG Export Plug-In . SVG Version: 6.00 Build 0)  -->
<svg version="1.1" id="Layer_1" xmlns="http://www.w3.org/2000/svg" xmlns:xlink="http://www.w3.org/1999/xlink" x="0px" y="0px"
	 viewBox="0 0 500 500" style="enable-background:new 0 0 500 500;" xml:space="preserve">
<style type="text/css">
	.st0{fill:#FFFFFF;}
</style>
<path class="st0" d="M135.5,466c-16.3-21.2,13.6-51.4,0-106c-2.4-9.5-5.5-22.1-14.5-36c-11.6-18-20-18-29-35
	c-7.6-14.4-8.8-28.1-10-41c-1.3-14-0.2-24.4,1-35c3.4-30.3,11.2-61.1,20-74.3c12-18,27.4-2,32,3.3c5.6,6.5-9.6,31.2-13,47
	c-0.5,2.3-7,34.7,5,62c10.5,24,36.6,46.9,54,41c9.2-3.1,13.4-13.3,14-15c6.7-17.3-7.4-32.2-19-73c0,0-0.4,4.9-2.2-10.4
	c-1.8-15.7,2.7-23.5,4.2-25.6c4.5-6.4,12.1-7.6,20-5c5.6,1.8,10,13,19,23c15.4,17.1,11,39.2,12,45c4.9,28.4,7.7,44.6,8,67
	c0.2,15.6-0.9,25.5-7,68c-12.8,89.4-15.3,98-25,105C185.1,485.4,148.7,483.2,135.5,466z"/>
<path class="st0" d="M365,466c16.3-21.2-13.6-51.4,0-106c2.4-9.5,5.5-22.1,14.5-36c11.6-18,20-18,29-35c7.6-14.4,8.8-28.1,10-41
	c1.3-14,0.2-24.4-1-35c-3.4-30.3-11.2-61.1-20-74.3c-12-18-27.4-2-32,3.3c-5.6,6.5,9.6,31.2,13,47c0.5,2.3,7,34.7-5,62
	c-10.5,24-36.6,46.9-54,41c-9.2-3.1-13.4-13.3-14-15c-6.7-17.3,7.4-32.2,19-73c0,0,0.4,4.9,2.2-10.4c1.8-15.7-2.7-23.5-4.2-25.6
	c-4.5-6.4-12.1-7.6-20-5c-5.6,1.8-10,13-19,23c-15.4,17.1-11,39.2-12,45c-4.9,28.4-7.7,44.6-8,67c-0.2,15.6,0.9,25.5,7,68
	c12.8,89.4,15.3,98,25,105C315.4,485.4,351.8,483.2,365,466z"/>
<circle class="st0" cx="247" cy="91.9" r="62.3"/>
</svg>
