<svg id="Layer_1" data-name="Layer 1" xmlns="http://www.w3.org/2000/svg" viewBox="0 0 400.69 310.64"><defs><style>.cls-1,.cls-3{fill:none;}.cls-1,.cls-2,.cls-3,.cls-4{stroke:#fff;stroke-miterlimit:10;}.cls-1{stroke-width:4px;}.cls-2,.cls-4{fill:#fff;}.cls-2{stroke-width:5px;}.cls-3,.cls-4{stroke-width:2px;}</style></defs><title>Scales_Inverted</title><path class="cls-1" d="M250,117.46H142.53s-23.88,21.93-63.35,0" transform="translate(-49.09 -115.46)"/><line class="cls-1" x1="30.09" y1="2" x2="1.14" y2="2"/><path class="cls-1" d="M250,117.46H357.47s23.88,21.93,63.35,0" transform="translate(-49.09 -115.46)"/><line class="cls-1" x1="371.74" y1="2" x2="400.69" y2="2"/><path class="cls-2" d="M250,117.46V354.3s59.65-8.77,85.41,39.47c0,0,18-8.77,49.59,29.82H107.41c31.58-38.6,57.18-29.82,57.18-29.82C190.35,345.53,250,354.3,250,354.3V117.46" transform="translate(-49.09 -115.46)"/><line class="cls-3" x1="62.55" y1="11.75" x2="57.28" y2="194.98"/><path class="cls-4" d="M50.23,319.21C106.37,299,164.59,321,164.59,321L123.88,126.09,164.59,321c-60.2,33.33-114.36-1.75-114.36-1.75L98.49,125.3" transform="translate(-49.09 -115.46)"/><line class="cls-3" x1="338.55" y1="13.75" x2="333.28" y2="196.98"/><path class="cls-4" d="M326.23,321.21C382.37,301,440.59,323,440.59,323L399.88,128.09,440.59,323c-60.2,33.33-114.36-1.75-114.36-1.75L374.49,127.3" transform="translate(-49.09 -115.46)"/></svg>