<svg id="Layer_1" data-name="Layer 1" xmlns="http://www.w3.org/2000/svg" viewBox="0 0 245.55 244.2"><defs><style>.cls-1{fill:#3f5268;}</style></defs><title>Telephone</title><path class="cls-1" d="M187,121H177l-17,5s-8,5-11,10.5l-6,9L136.5,158,133,171.5V186l3.5,16,6.5,18.5s3,13,17,37.5l16.5,22.5,13.5,15,8,7.5,32-28-17.5-20L199,233l-7.5-14s-3-4.5,4-11.5a69,69,0,0,1,14.5-11l6-6s5.5-5,6.5-9" transform="translate(-133 -121)"/><path class="cls-1" d="M378.43,310.45l0.12,10-4.8,17.06s-4.91,8.06-10.37,11.12l-8.93,6.1L342,361.37,328.56,365l-14.5.17-16-3.32-18.57-6.29s-13-2.85-37.69-16.57l-22.69-16.24-15.15-13.33-7.59-7.91,27.63-32.32,20.2,17.27,22.15,13.25,14.09,7.34s4.53,2.95,11.45-4.13a69,69,0,0,0,10.83-14.63l5.93-6.07s4.94-5.56,8.92-6.6" transform="translate(-133 -121)"/></svg>