<svg id="Layer_1" data-name="Layer 1" xmlns="http://www.w3.org/2000/svg" viewBox="0 0 102.49 99.22"><defs><style>.cls-1{fill:#c24242;opacity:0.56;}</style></defs><title>User</title><path id="_Path_" data-name="&lt;Path&gt;" class="cls-1" d="M100,208.81" transform="translate(-48.76 -55.21)"/><g id="_Group_" data-name="&lt;Group&gt;"><path id="_Path_2" data-name="&lt;Path&gt;" d="M151.22,149.1a51.48,51.48,0,0,0-24.7-38.8,4.69,4.69,0,0,0-5.37.4,33.41,33.41,0,0,1-42.29,0,4.69,4.69,0,0,0-5.37-.4,51.48,51.48,0,0,0-24.7,38.8,4.88,4.88,0,0,0,4.88,5.33h92.67A4.88,4.88,0,0,0,151.22,149.1Z" transform="translate(-48.76 -55.21)"/><circle id="_Path_3" data-name="&lt;Path&gt;" cx="51.24" cy="29.49" r="29.49"/></g></svg>